<svg width="30" height="28" viewBox="0 0 30 28" fill="none" xmlns="http://www.w3.org/2000/svg">
<path d="M25.625 0H13.125C11.9651 0.0012408 10.853 0.462576 10.0328 1.28278C9.21257 2.10298 8.75124 3.21506 8.75 4.375V12.5H20.732L16.6164 8.38359C16.3919 8.14727 16.2686 7.83258 16.2727 7.50663C16.2769 7.18067 16.4082 6.86925 16.6387 6.63875C16.8692 6.40824 17.1807 6.27691 17.5066 6.27273C17.8326 6.26856 18.1473 6.39188 18.3836 6.61641L24.6336 12.8664C24.8678 13.1008 24.9994 13.4186 24.9994 13.75C24.9994 14.0814 24.8678 14.3992 24.6336 14.6336L18.3836 20.8836C18.1473 21.1081 17.8326 21.2314 17.5066 21.2273C17.1807 21.2231 16.8692 21.0918 16.6387 20.8613C16.4082 20.6308 16.2769 20.3193 16.2727 19.9934C16.2686 19.6674 16.3919 19.3527 16.6164 19.1164L20.732 15H8.75V23.125C8.75 25.6289 11.3898 27.5 13.75 27.5H25.625C26.7849 27.4988 27.897 27.0374 28.7172 26.2172C29.5374 25.397 29.9988 24.2849 30 23.125V4.375C29.9988 3.21506 29.5374 2.10298 28.7172 1.28278C27.897 0.462576 26.7849 0.0012408 25.625 0ZM1.25 12.5C0.918479 12.5 0.600537 12.6317 0.366117 12.8661C0.131696 13.1005 0 13.4185 0 13.75C0 14.0815 0.131696 14.3995 0.366117 14.6339C0.600537 14.8683 0.918479 15 1.25 15H8.75V12.5H1.25Z" fill="black"/>
</svg>
